STARTFONT 2.1
FONT -FontForge-Source Sans Pro-Book-R-Normal-SansPro--25-240-75-75-P-119-ISO10646-1
SIZE 24 75 75
FONTBOUNDINGBOX 21 25 -1 -6
COMMENT "Generated by fontforge, http://fontforge.sourceforge.net"
COMMENT "(c) 2010 - 2018 Adobe Systems Incorporated (http://www.adobe.com/), with Reserved Font Name `Source'."
STARTPROPERTIES 40
FOUNDRY "FontForge"
FAMILY_NAME "Source Sans Pro"
WEIGHT_NAME "Book"
SLANT "R"
SETWIDTH_NAME "Normal"
ADD_STYLE_NAME "SansPro"
PIXEL_SIZE 25
POINT_SIZE 240
RESOLUTION_X 75
RESOLUTION_Y 75
SPACING "P"
AVERAGE_WIDTH 119
CHARSET_REGISTRY "ISO10646"
CHARSET_ENCODING "1"
FONTNAME_REGISTRY ""
CHARSET_COLLECTIONS "ISO10646-1"
FONT_NAME "SourceSansPro-Regular"
FACE_NAME "Source Sans Pro"
COPYRIGHT "(c) 2010 - 2018 Adobe Systems Incorporated (http://www.adobe.com/), with Reserved Font Name `Source'."
FONT_VERSION "2.045;hotconv 1.0.109;makeotfexe 2.5.65596"
FONT_ASCENT 19
FONT_DESCENT 6
UNDERLINE_POSITION -2
UNDERLINE_THICKNESS 2
X_HEIGHT 11
CAP_HEIGHT 15
RAW_ASCENT 750
RAW_DESCENT 250
NORM_SPACE 5
RELATIVE_WEIGHT 40
RELATIVE_SETWIDTH 50
SUPERSCRIPT_X 0
SUPERSCRIPT_Y 8
SUPERSCRIPT_SIZE 15
SUBSCRIPT_X 0
SUBSCRIPT_Y 1
SUBSCRIPT_SIZE 15
FIGURE_WIDTH 12
AVG_LOWERCASE_WIDTH 119
AVG_UPPERCASE_WIDTH 141
ENDPROPERTIES
CHARS 95
STARTCHAR space
ENCODING 32
SWIDTH 200 0
DWIDTH 5 0
BBX 1 1 0 0
BITMAP
00
ENDCHAR
STARTCHAR exclam
ENCODING 33
SWIDTH 289 0
DWIDTH 7 0
BBX 3 17 2 0
BITMAP
60
60
60
60
60
60
40
40
40
40
40
40
00
00
40
E0
E0
ENDCHAR
STARTCHAR quotedbl
ENCODING 34
SWIDTH 426 0
DWIDTH 11 0
BBX 7 6 2 11
BITMAP
CE
CE
C6
C4
C4
C4
ENDCHAR
STARTCHAR numbersign
ENCODING 35
SWIDTH 497 0
DWIDTH 12 0
BBX 11 16 1 0
BITMAP
1080
1080
1080
1180
FFE0
FFE0
3100
3100
3100
FFC0
FFC0
2300
2300
2300
6200
6200
ENDCHAR
STARTCHAR dollar
ENCODING 36
SWIDTH 497 0
DWIDTH 12 0
BBX 10 22 1 -3
BITMAP
0400
0400
0400
1F00
3B80
6080
6000
6000
7000
3800
1E00
0700
0380
01C0
00C0
00C0
40C0
FB80
3F00
0400
0400
0400
ENDCHAR
STARTCHAR percent
ENCODING 37
SWIDTH 824 0
DWIDTH 21 0
BBX 19 17 1 0
BITMAP
180400
7C0C00
C60800
C21800
821000
823000
822000
C66780
C64CC0
7CC840
309860
019860
011860
031860
020840
040CC0
0C0780
ENDCHAR
STARTCHAR ampersand
ENCODING 38
SWIDTH 609 0
DWIDTH 15 0
BBX 14 17 1 0
BITMAP
0E00
1F00
3180
3180
3180
3300
3700
1C00
380C
7C18
E618
C730
C3B0
C1E0
C0F0
73BC
3F1C
ENDCHAR
STARTCHAR quotesingle
ENCODING 39
SWIDTH 249 0
DWIDTH 6 0
BBX 2 6 2 11
BITMAP
C0
C0
C0
C0
C0
C0
ENDCHAR
STARTCHAR parenleft
ENCODING 40
SWIDTH 303 0
DWIDTH 8 0
BBX 5 22 2 -4
BITMAP
18
30
20
60
60
40
C0
C0
C0
C0
C0
C0
C0
C0
C0
C0
40
60
60
20
30
10
ENDCHAR
STARTCHAR parenright
ENCODING 41
SWIDTH 303 0
DWIDTH 8 0
BBX 5 22 1 -4
BITMAP
C0
40
60
60
20
30
30
10
10
10
18
18
10
10
10
30
30
30
20
60
40
C0
ENDCHAR
STARTCHAR asterisk
ENCODING 42
SWIDTH 418 0
DWIDTH 10 0
BBX 7 7 2 11
BITMAP
10
30
B2
FE
38
78
4C
ENDCHAR
STARTCHAR plus
ENCODING 43
SWIDTH 497 0
DWIDTH 12 0
BBX 11 11 1 3
BITMAP
0C00
0C00
0C00
0C00
0C00
FFE0
FFE0
0C00
0C00
0C00
0C00
ENDCHAR
STARTCHAR comma
ENCODING 44
SWIDTH 249 0
DWIDTH 6 0
BBX 4 7 1 -4
BITMAP
60
70
70
30
30
60
C0
ENDCHAR
STARTCHAR hyphen.dup1
ENCODING 45
SWIDTH 311 0
DWIDTH 8 0
BBX 6 2 1 5
BITMAP
FC
FC
ENDCHAR
STARTCHAR period
ENCODING 46
SWIDTH 249 0
DWIDTH 6 0
BBX 3 3 2 0
BITMAP
C0
E0
C0
ENDCHAR
STARTCHAR slash
ENCODING 47
SWIDTH 350 0
DWIDTH 9 0
BBX 8 22 0 -4
BITMAP
01
01
03
02
02
06
06
04
0C
0C
08
18
18
10
10
30
20
20
60
60
40
C0
ENDCHAR
STARTCHAR zero
ENCODING 48
SWIDTH 497 0
DWIDTH 12 0
BBX 10 16 1 0
BITMAP
1F00
3B80
6180
60C0
C0C0
C0C0
C0C0
C0C0
C0C0
C0C0
C0C0
C0C0
60C0
6180
3B80
1F00
ENDCHAR
STARTCHAR one
ENCODING 49
SWIDTH 497 0
DWIDTH 12 0
BBX 9 16 2 0
BITMAP
1C00
7C00
7C00
0C00
0C00
0C00
0C00
0C00
0C00
0C00
0C00
0C00
0C00
0C00
FF80
FF80
ENDCHAR
STARTCHAR two
ENCODING 50
SWIDTH 497 0
DWIDTH 12 0
BBX 10 16 1 0
BITMAP
3F00
7780
C180
0180
01C0
0180
0180
0380
0300
0600
0E00
1C00
3800
7000
FFC0
FFC0
ENDCHAR
STARTCHAR three
ENCODING 51
SWIDTH 497 0
DWIDTH 12 0
BBX 10 16 1 0
BITMAP
3F00
7780
4180
01C0
01C0
0180
0300
1E00
1F80
01C0
00C0
00C0
00C0
C1C0
F780
3F00
ENDCHAR
STARTCHAR four
ENCODING 52
SWIDTH 497 0
DWIDTH 12 0
BBX 12 16 0 0
BITMAP
01C0
03C0
03C0
06C0
0CC0
0CC0
18C0
30C0
30C0
60C0
FFF0
FFF0
00C0
00C0
00C0
00C0
ENDCHAR
STARTCHAR five
ENCODING 53
SWIDTH 497 0
DWIDTH 12 0
BBX 10 16 1 0
BITMAP
7F80
7F80
6000
6000
6000
6000
7F00
7780
01C0
00C0
00C0
00C0
00C0
81C0
F780
7F00
ENDCHAR
STARTCHAR six
ENCODING 54
SWIDTH 497 0
DWIDTH 12 0
BBX 10 16 1 0
BITMAP
0F80
3FC0
3000
6000
6000
C000
C600
DF80
F1C0
C0C0
C0C0
C0C0
60C0
60C0
3B80
1F00
ENDCHAR
STARTCHAR seven
ENCODING 55
SWIDTH 497 0
DWIDTH 12 0
BBX 10 16 1 0
BITMAP
FFC0
FFC0
0080
0180
0300
0300
0600
0600
0600
0C00
0C00
0C00
0C00
0C00
0C00
1C00
ENDCHAR
STARTCHAR eight
ENCODING 56
SWIDTH 497 0
DWIDTH 12 0
BBX 10 16 1 0
BITMAP
1F00
3380
60C0
60C0
60C0
60C0
3980
1F00
3700
61C0
C0C0
C0C0
C0C0
C0C0
71C0
3F00
ENDCHAR
STARTCHAR nine
ENCODING 57
SWIDTH 497 0
DWIDTH 12 0
BBX 10 16 1 0
BITMAP
3E00
7780
E180
C0C0
C0C0
C0C0
C0C0
E1C0
7FC0
1CC0
00C0
00C0
0180
4180
F700
7E00
ENDCHAR
STARTCHAR colon
ENCODING 58
SWIDTH 249 0
DWIDTH 6 0
BBX 3 12 2 0
BITMAP
C0
E0
C0
00
00
00
00
00
00
C0
E0
C0
ENDCHAR
STARTCHAR semicolon
ENCODING 59
SWIDTH 249 0
DWIDTH 6 0
BBX 4 16 1 -4
BITMAP
60
70
60
00
00
00
00
00
00
60
70
70
30
30
60
C0
ENDCHAR
STARTCHAR less
ENCODING 60
SWIDTH 497 0
DWIDTH 12 0
BBX 11 10 1 3
BITMAP
00E0
03C0
1F00
7800
C000
F000
3E00
0780
01E0
0020
ENDCHAR
STARTCHAR equal
ENCODING 61
SWIDTH 497 0
DWIDTH 12 0
BBX 11 7 1 5
BITMAP
FFE0
FFE0
0000
0000
0000
0000
FFE0
ENDCHAR
STARTCHAR greater
ENCODING 62
SWIDTH 497 0
DWIDTH 12 0
BBX 11 9 1 4
BITMAP
C000
F800
1E00
07C0
00E0
03E0
0F00
7C00
E000
ENDCHAR
STARTCHAR question
ENCODING 63
SWIDTH 425 0
DWIDTH 11 0
BBX 8 17 1 0
BITMAP
3E
FF
C3
03
03
03
07
06
0C
18
18
18
00
00
18
38
18
ENDCHAR
STARTCHAR at
ENCODING 64
SWIDTH 847 0
DWIDTH 21 0
BBX 19 20 1 -4
BITMAP
01FC00
070700
0C0180
1800C0
300040
606C60
61FC60
431860
C31860
C61860
C61860
C61840
C638C0
43EF80
400600
600000
300000
180000
0FFC00
03F000
ENDCHAR
STARTCHAR A
ENCODING 65
SWIDTH 544 0
DWIDTH 14 0
BBX 13 16 0 0
BITMAP
0700
0780
0580
0D80
0CC0
0CC0
18C0
1860
1860
3FE0
3FF0
3030
6030
6018
6018
C018
ENDCHAR
STARTCHAR B
ENCODING 66
SWIDTH 588 0
DWIDTH 15 0
BBX 12 16 2 0
BITMAP
FF80
C1C0
C0E0
C060
C060
C0C0
C3C0
FF80
C0E0
C060
C030
C030
C070
C060
FFC0
FF80
ENDCHAR
STARTCHAR C
ENCODING 67
SWIDTH 571 0
DWIDTH 14 0
BBX 12 17 1 0
BITMAP
0380
0FE0
3C70
3000
6000
6000
E000
E000
C000
C000
E000
6000
6000
7000
3830
1FF0
0FE0
ENDCHAR
STARTCHAR D
ENCODING 68
SWIDTH 615 0
DWIDTH 15 0
BBX 12 16 2 0
BITMAP
FF80
C7C0
C0E0
C060
C070
C030
C030
C030
C030
C030
C030
C060
C060
C1C0
FF80
FF00
ENDCHAR
STARTCHAR E
ENCODING 69
SWIDTH 527 0
DWIDTH 13 0
BBX 10 16 2 0
BITMAP
FFC0
C000
C000
C000
C000
C000
FF80
FF80
C000
C000
C000
C000
C000
C000
FFC0
FFC0
ENDCHAR
STARTCHAR F
ENCODING 70
SWIDTH 494 0
DWIDTH 12 0
BBX 10 16 2 0
BITMAP
FFC0
C000
C000
C000
C000
C000
C000
FF80
FF80
C000
C000
C000
C000
C000
C000
C000
ENDCHAR
STARTCHAR G
ENCODING 71
SWIDTH 617 0
DWIDTH 15 0
BBX 13 17 1 0
BITMAP
03C0
0FF0
3C30
3010
6000
6000
E000
E000
C1F8
C1F8
E018
6018
6018
7018
3818
1FF8
0FE0
ENDCHAR
STARTCHAR H
ENCODING 72
SWIDTH 652 0
DWIDTH 16 0
BBX 12 16 2 0
BITMAP
C030
C030
C030
C030
C030
C030
FFF0
FFF0
C030
C030
C030
C030
C030
C030
C030
C030
ENDCHAR
STARTCHAR I
ENCODING 73
SWIDTH 263 0
DWIDTH 7 0
BBX 2 16 2 0
BITMAP
C0
C0
C0
C0
C0
C0
C0
C0
C0
C0
C0
C0
C0
C0
C0
C0
ENDCHAR
STARTCHAR J
ENCODING 74
SWIDTH 480 0
DWIDTH 12 0
BBX 9 16 1 0
BITMAP
0180
0180
0180
0180
0180
0180
0180
0180
0180
0180
0180
0180
0180
C300
FF00
7E00
ENDCHAR
STARTCHAR K
ENCODING 75
SWIDTH 579 0
DWIDTH 14 0
BBX 12 16 2 0
BITMAP
C0E0
C0C0
C180
C300
C700
CE00
DE00
DE00
F300
E380
E180
C1C0
C0C0
C060
C060
C030
ENDCHAR
STARTCHAR L
ENCODING 76
SWIDTH 486 0
DWIDTH 12 0
BBX 10 16 2 0
BITMAP
C000
C000
C000
C000
C000
C000
C000
C000
C000
C000
C000
C000
C000
C000
FFC0
FFC0
ENDCHAR
STARTCHAR M
ENCODING 77
SWIDTH 727 0
DWIDTH 18 0
BBX 14 16 2 0
BITMAP
E01C
E01C
F03C
F03C
D82C
D86C
C86C
CC4C
CCCC
C4CC
C68C
C78C
C30C
C30C
C00C
C00C
ENDCHAR
STARTCHAR N
ENCODING 78
SWIDTH 647 0
DWIDTH 16 0
BBX 12 16 2 0
BITMAP
E030
E030
F030
D830
D830
CC30
CC30
C630
C730
C330
C1B0
C1B0
C0F0
C0F0
C070
C070
ENDCHAR
STARTCHAR O
ENCODING 79
SWIDTH 664 0
DWIDTH 17 0
BBX 14 17 1 0
BITMAP
0380
1FE0
3C70
3038
601C
600C
E00C
E00C
C00C
C00C
E00C
600C
601C
7018
3838
1FF0
0FE0
ENDCHAR
STARTCHAR P
ENCODING 80
SWIDTH 566 0
DWIDTH 14 0
BBX 11 16 2 0
BITMAP
FF80
C1C0
C0E0
C060
C060
C060
C0E0
C1C0
FF80
F800
C000
C000
C000
C000
C000
C000
ENDCHAR
STARTCHAR Q
ENCODING 81
SWIDTH 664 0
DWIDTH 17 0
BBX 15 21 1 -4
BITMAP
0380
1FE0
3C70
3038
601C
600C
E00C
E00C
C00C
C00C
E00C
600C
601C
7018
3038
1EF0
0FE0
0380
01C0
00FC
007E
ENDCHAR
STARTCHAR R
ENCODING 82
SWIDTH 569 0
DWIDTH 14 0
BBX 11 16 2 0
BITMAP
FF80
C1C0
C060
C060
C060
C060
C0E0
FFC0
FF00
C300
C300
C180
C1C0
C0C0
C0E0
C060
ENDCHAR
STARTCHAR S
ENCODING 83
SWIDTH 534 0
DWIDTH 13 0
BBX 11 17 1 0
BITMAP
0F00
3FC0
70E0
6000
6000
6000
7000
3C00
1F80
03C0
00E0
0060
0060
0060
E060
7FC0
3F80
ENDCHAR
STARTCHAR T
ENCODING 84
SWIDTH 536 0
DWIDTH 13 0
BBX 12 16 1 0
BITMAP
FFF0
0600
0600
0600
0600
0600
0600
0600
0600
0600
0600
0600
0600
0600
0600
0600
ENDCHAR
STARTCHAR U
ENCODING 85
SWIDTH 645 0
DWIDTH 16 0
BBX 12 16 2 0
BITMAP
C030
C030
C030
C030
C030
C030
C030
C030
C030
C030
C030
C030
6070
7060
3FC0
1F80
ENDCHAR
STARTCHAR V
ENCODING 86
SWIDTH 515 0
DWIDTH 13 0
BBX 13 16 0 0
BITMAP
C038
6030
6030
6030
3060
3060
3060
18C0
18C0
18C0
1880
0D80
0D80
0D00
0700
0700
ENDCHAR
STARTCHAR W
ENCODING 87
SWIDTH 786 0
DWIDTH 20 0
BBX 18 16 1 0
BITMAP
C0C0C0
C1C0C0
C1E180
C1E180
616180
632180
633180
633100
623300
361300
361B00
361B00
341A00
140E00
1C0E00
1C0E00
ENDCHAR
STARTCHAR X
ENCODING 88
SWIDTH 513 0
DWIDTH 13 0
BBX 11 16 1 0
BITMAP
C0E0
60C0
71C0
3180
3B00
1B00
0E00
0E00
0E00
1B00
3B00
3180
6180
60C0
C0E0
C060
ENDCHAR
STARTCHAR Y
ENCODING 89
SWIDTH 476 0
DWIDTH 12 0
BBX 11 16 0 0
BITMAP
E060
6060
70E0
30C0
30C0
1980
1980
0F00
0F00
0600
0600
0600
0600
0600
0600
0600
ENDCHAR
STARTCHAR Z
ENCODING 90
SWIDTH 539 0
DWIDTH 13 0
BBX 11 16 1 0
BITMAP
7FE0
0060
00C0
01C0
0180
0300
0700
0600
0C00
1C00
1800
3000
3000
6000
FFE0
FFE0
ENDCHAR
STARTCHAR bracketleft
ENCODING 91
SWIDTH 303 0
DWIDTH 8 0
BBX 5 22 2 -4
BITMAP
F8
C0
C0
C0
C0
C0
C0
C0
C0
C0
C0
C0
C0
C0
C0
C0
C0
C0
C0
C0
C0
F8
ENDCHAR
STARTCHAR backslash
ENCODING 92
SWIDTH 350 0
DWIDTH 9 0
BBX 8 22 0 -4
BITMAP
C0
40
60
60
20
20
30
10
10
18
18
08
0C
0C
04
06
06
02
02
03
01
01
ENDCHAR
STARTCHAR bracketright
ENCODING 93
SWIDTH 303 0
DWIDTH 8 0
BBX 4 22 1 -4
BITMAP
F0
10
10
10
10
10
10
10
10
10
10
10
10
10
10
10
10
10
10
10
10
F0
ENDCHAR
STARTCHAR asciicircum
ENCODING 94
SWIDTH 497 0
DWIDTH 12 0
BBX 9 10 2 7
BITMAP
1800
1C00
3C00
3400
2600
6600
6300
C300
C100
8180
ENDCHAR
STARTCHAR underscore
ENCODING 95
SWIDTH 500 0
DWIDTH 13 0
BBX 12 1 0 -3
BITMAP
FFF0
ENDCHAR
STARTCHAR grave
ENCODING 96
SWIDTH 542 0
DWIDTH 14 0
BBX 4 4 4 15
BITMAP
C0
C0
60
30
ENDCHAR
STARTCHAR a
ENCODING 97
SWIDTH 504 0
DWIDTH 13 0
BBX 10 12 1 0
BITMAP
3F00
7380
01C0
00C0
03C0
1FC0
70C0
60C0
C0C0
C1C0
77C0
7CC0
ENDCHAR
STARTCHAR b
ENCODING 98
SWIDTH 553 0
DWIDTH 14 0
BBX 11 18 2 0
BITMAP
C000
C000
C000
C000
C000
C000
DF80
FBC0
E0C0
C0C0
C0E0
C060
C0E0
C0E0
C0C0
C1C0
FF80
DF00
ENDCHAR
STARTCHAR c
ENCODING 99
SWIDTH 456 0
DWIDTH 11 0
BBX 10 12 1 0
BITMAP
1F80
3980
6000
6000
C000
C000
C000
C000
6000
6000
3FC0
1F80
ENDCHAR
STARTCHAR d
ENCODING 100
SWIDTH 555 0
DWIDTH 14 0
BBX 11 18 1 0
BITMAP
0060
0060
0060
0060
0060
0060
1F60
39E0
6060
E060
C060
C060
C060
C060
E060
60E0
7BE0
3F60
ENDCHAR
STARTCHAR e
ENCODING 101
SWIDTH 496 0
DWIDTH 12 0
BBX 10 12 1 0
BITMAP
1F80
3180
60C0
60C0
C040
FFC0
C000
C000
6000
6000
39C0
1F80
ENDCHAR
STARTCHAR f
ENCODING 102
SWIDTH 292 0
DWIDTH 7 0
BBX 7 18 1 0
BITMAP
1E
3E
30
60
60
60
FC
FC
60
60
60
60
60
60
60
60
60
60
ENDCHAR
STARTCHAR g
ENCODING 103
SWIDTH 504 0
DWIDTH 13 0
BBX 11 18 1 -6
BITMAP
3FE0
7180
6180
60C0
60C0
6180
3380
3F00
6000
6000
7E00
3FE0
60E0
C060
C060
E0E0
7F80
0C00
ENDCHAR
STARTCHAR h
ENCODING 104
SWIDTH 544 0
DWIDTH 14 0
BBX 10 18 2 0
BITMAP
C000
C000
C000
C000
C000
C000
DF80
FB80
E1C0
C0C0
C0C0
C0C0
C0C0
C0C0
C0C0
C0C0
C0C0
C0C0
ENDCHAR
STARTCHAR i
ENCODING 105
SWIDTH 246 0
DWIDTH 6 0
BBX 2 17 2 0
BITMAP
C0
C0
00
00
00
C0
C0
C0
C0
C0
C0
C0
C0
C0
C0
C0
C0
ENDCHAR
STARTCHAR j
ENCODING 106
SWIDTH 247 0
DWIDTH 6 0
BBX 5 22 -1 -5
BITMAP
18
18
00
00
00
18
18
18
18
18
18
18
18
18
18
18
18
18
18
18
38
F0
ENDCHAR
STARTCHAR k
ENCODING 107
SWIDTH 495 0
DWIDTH 12 0
BBX 10 18 2 0
BITMAP
C000
C000
C000
C000
C000
C000
C180
C300
C600
CE00
CC00
DC00
F600
E600
C300
C380
C180
C0C0
ENDCHAR
STARTCHAR l
ENCODING 108
SWIDTH 255 0
DWIDTH 6 0
BBX 3 18 2 0
BITMAP
C0
C0
C0
C0
C0
C0
C0
C0
C0
C0
C0
C0
C0
C0
C0
C0
E0
60
ENDCHAR
STARTCHAR m
ENCODING 109
SWIDTH 829 0
DWIDTH 21 0
BBX 17 12 2 0
BITMAP
DF1F00
FBF700
E1C380
C18180
C18180
C18180
C18180
C18180
C18180
C18180
C18180
C18180
ENDCHAR
STARTCHAR n
ENCODING 110
SWIDTH 547 0
DWIDTH 14 0
BBX 10 12 2 0
BITMAP
DF80
FB80
E1C0
C0C0
C0C0
C0C0
C0C0
C0C0
C0C0
C0C0
C0C0
C0C0
ENDCHAR
STARTCHAR o
ENCODING 111
SWIDTH 542 0
DWIDTH 14 0
BBX 11 12 1 0
BITMAP
1F80
39C0
60E0
E060
C060
C060
C060
C060
6060
60E0
3BC0
1F80
ENDCHAR
STARTCHAR p
ENCODING 112
SWIDTH 555 0
DWIDTH 14 0
BBX 11 17 2 -5
BITMAP
DF80
FBC0
E0C0
C0C0
C0E0
C060
C0E0
C0E0
C0C0
C1C0
FF80
DF00
C000
C000
C000
C000
C000
ENDCHAR
STARTCHAR q
ENCODING 113
SWIDTH 555 0
DWIDTH 14 0
BBX 11 17 1 -5
BITMAP
1F60
39E0
6060
E060
C060
C060
C060
C060
E060
60E0
7BE0
3F60
0060
0060
0060
0060
0060
ENDCHAR
STARTCHAR r
ENCODING 114
SWIDTH 347 0
DWIDTH 9 0
BBX 7 12 2 0
BITMAP
DE
F8
E0
C0
C0
C0
C0
C0
C0
C0
C0
C0
ENDCHAR
STARTCHAR s
ENCODING 115
SWIDTH 419 0
DWIDTH 10 0
BBX 9 12 1 0
BITMAP
3F00
6300
C000
C000
7000
3C00
0F00
0300
0180
0180
E700
7E00
ENDCHAR
STARTCHAR t
ENCODING 116
SWIDTH 338 0
DWIDTH 8 0
BBX 7 16 1 0
BITMAP
20
20
20
20
FE
FE
60
60
60
60
60
60
60
70
3A
3E
ENDCHAR
STARTCHAR u
ENCODING 117
SWIDTH 544 0
DWIDTH 14 0
BBX 10 12 2 0
BITMAP
C1C0
C1C0
C1C0
C1C0
C1C0
C1C0
C1C0
C1C0
C1C0
C1C0
FEC0
7CC0
ENDCHAR
STARTCHAR v
ENCODING 118
SWIDTH 467 0
DWIDTH 12 0
BBX 10 12 1 0
BITMAP
C0C0
C0C0
C180
6180
6180
6300
3300
3300
3200
1E00
1E00
1C00
ENDCHAR
STARTCHAR w
ENCODING 119
SWIDTH 718 0
DWIDTH 18 0
BBX 16 12 1 0
BITMAP
C183
C183
C3C3
63C6
6246
6266
6666
366C
342C
3C3C
1C3C
1C38
ENDCHAR
STARTCHAR x
ENCODING 120
SWIDTH 446 0
DWIDTH 11 0
BBX 9 12 1 0
BITMAP
C180
6380
6300
3600
1E00
1C00
1C00
3600
3700
6300
C180
C180
ENDCHAR
STARTCHAR y
ENCODING 121
SWIDTH 467 0
DWIDTH 12 0
BBX 10 17 1 -5
BITMAP
C0C0
C0C0
C080
6180
6180
3100
3300
3300
1A00
1E00
0E00
0C00
0C00
0C00
1800
F800
F000
ENDCHAR
STARTCHAR z
ENCODING 122
SWIDTH 425 0
DWIDTH 11 0
BBX 9 12 1 0
BITMAP
FF80
FF00
0300
0600
0C00
1C00
1800
3000
7000
6000
FF80
FF80
ENDCHAR
STARTCHAR braceleft
ENCODING 123
SWIDTH 303 0
DWIDTH 8 0
BBX 6 22 1 -4
BITMAP
1C
38
30
30
20
20
30
30
30
20
E0
E0
20
30
30
30
30
20
20
30
30
1C
ENDCHAR
STARTCHAR bar
ENCODING 124
SWIDTH 241 0
DWIDTH 6 0
BBX 2 25 2 -6
BITMAP
C0
C0
C0
C0
C0
C0
C0
C0
C0
C0
C0
C0
C0
C0
C0
C0
C0
C0
C0
C0
C0
C0
C0
C0
C0
ENDCHAR
STARTCHAR braceright
ENCODING 125
SWIDTH 303 0
DWIDTH 8 0
BBX 6 22 1 -4
BITMAP
C0
60
30
30
30
30
30
30
30
30
1C
1C
30
30
30
30
30
30
30
30
60
C0
ENDCHAR
STARTCHAR asciitilde
ENCODING 126
SWIDTH 497 0
DWIDTH 12 0
BBX 10 4 1 6
BITMAP
7800
FC40
87C0
0100
ENDCHAR
ENDFONT
